<?xml version="1.0" encoding="utf-8"?>
<!-- Generator: Adobe Illustrator 26.5.0, SVG Export Plug-In . SVG Version: 6.00 Build 0)  -->
<svg version="1.1" id="Calque_1" xmlns="http://www.w3.org/2000/svg" xmlns:xlink="http://www.w3.org/1999/xlink" x="0px" y="0px"
	 viewBox="0 0 4266.13 627.97" style="enable-background:new 0 0 4266.13 627.97;" xml:space="preserve">
<style type="text/css">
	.st0{fill:#190F75;}
	.st1{fill:#FD7E0A;}
</style>
<g>
	<path class="st0" d="M500.54,102.59c7.77,0,11.67,3.72,11.67,11.16v48.17c0,7.45-3.89,11.16-11.67,11.16H278.92
		c-13.18,0-24.09,1.11-32.7,3.29c-8.62,2.21-15.56,5.93-20.79,11.17c-5.26,5.24-8.88,12.34-10.91,21.3
		c-2.04,8.96-3.05,20.04-3.05,33.22v5.06H498c7.43,0,11.16,3.72,11.16,11.16v40.06c0,7.45-3.72,11.17-11.16,11.17H211.48v8.62
		c0,13.18,1.01,24.27,3.05,33.2c2.03,8.97,5.64,16.06,10.91,21.31c5.22,5.24,12.17,8.96,20.79,11.16c8.62,2.2,19.52,3.29,32.7,3.29
		h221.62c7.77,0,11.67,3.74,11.67,11.17v48.17c0,7.43-3.89,11.14-11.67,11.14H277.41c-25.71,0-47.5-2.35-65.43-7.1
		c-17.92-4.72-32.53-12.41-43.86-23.07c-11.33-10.63-19.6-24.5-24.84-41.57c-5.25-17.06-7.87-37.78-7.87-62.12v-87.22
		c0-24.34,2.62-44.97,7.87-61.87c5.24-16.9,13.51-30.68,24.84-41.33c11.33-10.64,25.94-18.42,43.86-23.32
		c17.93-4.89,39.73-7.35,65.43-7.35H500.54z"/>
	<path class="st0" d="M1382.57,179.17c6.09,0,9.13,3.04,9.13,9.12v42.6c0,6.09-3.04,9.13-9.13,9.13H1185.8
		c-11.16,0-20.27,0.93-27.38,2.79c-7.1,1.87-12.68,4.91-16.75,9.13c-4.05,4.24-6.92,9.98-8.62,17.25
		c-1.7,7.28-2.53,16.14-2.53,26.63v45.12c0,10.83,0.83,19.79,2.53,26.88c1.7,7.1,4.56,12.77,8.62,16.98
		c4.06,4.24,9.64,7.29,16.75,9.13c7.1,1.87,16.22,2.8,27.38,2.8h196.77c6.09,0,9.13,3.04,9.13,9.12v42.6c0,6.09-3.04,9.13-9.13,9.13
		h-203.86c-23,0-42.18-1.85-57.55-5.58c-15.39-3.71-27.73-9.71-37.03-18c-9.3-8.27-15.96-18.93-20.02-31.95
		c-4.07-13.01-6.09-28.65-6.09-46.91V282.1c0-18.25,2.03-33.89,6.09-46.9c4.07-13,10.72-23.67,20.02-31.94
		c9.3-8.29,21.64-14.38,37.03-18.26c15.38-3.89,34.56-5.83,57.55-5.83H1382.57z"/>
	<path class="st0" d="M1697.99,179.17c17.25,0,31.52,1.43,42.85,4.3c11.33,2.88,20.29,7.6,26.88,14.21
		c6.6,6.59,11.23,15.21,13.94,25.86c2.71,10.64,4.06,23.57,4.06,38.78v48.17c0,10.83-2.38,18.35-7.1,22.57
		c-4.74,4.24-12,6.34-21.8,6.34h-256.1v12.16c0,15.91,3.8,27.39,11.41,34.49c7.6,7.1,22.39,10.66,44.37,10.66h211.46
		c6.09,0,9.14,3.04,9.14,9.12v42.6c0,6.09-3.05,9.13-9.14,9.13H1549.4c-22.98,0-42.18-1.85-57.55-5.58
		c-15.39-3.71-27.72-9.71-37.02-18c-9.29-8.27-15.97-18.93-20.04-31.95c-4.04-13.01-6.08-28.65-6.08-46.91V282.1
		c0-18.25,2.04-33.89,6.08-46.9c4.07-13,10.75-23.67,20.04-31.94c9.3-8.29,21.63-14.38,37.02-18.26
		c15.38-3.89,34.57-5.83,57.55-5.83H1697.99z M1500.72,294.28h205.38c5.74,0,8.63-2.87,8.63-8.63v-21.29
		c0-10.48-2.21-17.92-6.6-22.32c-4.39-4.39-12.51-6.59-24.34-6.59H1556.5c-21.98,0-36.77,3.47-44.37,10.39
		c-7.6,6.93-11.41,18.52-11.41,34.74V294.28z"/>
	<path class="st0" d="M1901.33,77.23c7.43,0,11.16,3.72,11.16,11.16v358.02c0,7.43-3.72,11.16-11.16,11.16h-49.7
		c-7.45,0-11.16-3.72-11.16-11.16V88.39c0-7.43,3.71-11.16,11.16-11.16H1901.33z"/>
	<path class="st0" d="M2235.01,179.17c17.25,0,31.52,1.43,42.85,4.3c11.33,2.88,20.29,7.6,26.88,14.21
		c6.59,6.59,11.23,15.21,13.94,25.86c2.71,10.64,4.06,23.57,4.06,38.78v48.17c0,10.83-2.38,18.35-7.1,22.57
		c-4.74,4.24-12.01,6.34-21.8,6.34h-256.1v12.16c0,15.91,3.8,27.39,11.41,34.49c7.6,7.1,22.39,10.66,44.37,10.66h211.46
		c6.09,0,9.14,3.04,9.14,9.12v42.6c0,6.09-3.05,9.13-9.14,9.13h-218.56c-23,0-42.18-1.85-57.55-5.58
		c-15.39-3.71-27.72-9.71-37.02-18c-9.29-8.27-15.97-18.93-20.04-31.95c-4.04-13.01-6.08-28.65-6.08-46.91V282.1
		c0-18.25,2.04-33.89,6.08-46.9c4.07-13,10.75-23.67,20.04-31.94c9.3-8.29,21.63-14.38,37.02-18.26
		c15.38-3.89,34.56-5.83,57.55-5.83H2235.01z M2037.74,294.28h205.38c5.74,0,8.62-2.87,8.62-8.63v-21.29
		c0-10.48-2.2-17.92-6.59-22.32c-4.39-4.39-12.52-6.59-24.34-6.59h-127.29c-21.98,0-36.77,3.47-44.37,10.39
		c-7.6,6.93-11.41,18.52-11.41,34.74V294.28z"/>
	<path class="st0" d="M2641.71,179.17c22.64,0,41.74,1.93,57.29,5.83c15.55,3.88,27.97,9.97,37.27,18.26
		c9.31,8.27,15.98,18.94,20.05,31.94c4.05,13.01,6.08,28.65,6.08,46.9v164.31c0,7.45-3.72,11.16-11.16,11.16h-49.7
		c-7.45,0-11.16-3.71-11.16-11.16V299.34c0-10.47-0.68-19.34-2.03-26.61c-1.35-7.28-3.97-13.01-7.87-17.25
		c-3.89-4.22-9.21-7.28-15.97-9.13c-6.76-1.86-15.55-2.78-26.38-2.78h-134.88c-10.83,0-19.77,0.92-26.88,2.78
		c-7.09,1.85-12.76,4.91-16.98,9.13c-4.25,4.24-7.18,9.97-8.88,17.25c-1.7,7.27-2.54,16.14-2.54,26.61v147.06
		c0,7.45-3.72,11.16-11.14,11.16h-49.71c-7.77,0-11.66-3.71-11.66-11.16V282.1c0-18.25,2.03-33.89,6.09-46.9
		c4.05-13,10.72-23.67,20.02-31.94c9.29-8.29,21.64-14.38,37.02-18.26c15.38-3.89,34.56-5.83,57.57-5.83H2641.71z"/>
	<path class="st0" d="M3137.65,179.17c6.08,0,9.12,3.04,9.12,9.12v42.6c0,6.09-3.04,9.13-9.12,9.13h-196.76
		c-11.16,0-20.29,0.93-27.39,2.79c-7.09,1.87-12.67,4.91-16.73,9.13c-4.04,4.24-6.93,9.98-8.62,17.25
		c-1.7,7.28-2.53,16.14-2.53,26.63v45.12c0,10.83,0.83,19.79,2.53,26.88c1.68,7.1,4.58,12.77,8.62,16.98
		c4.06,4.24,9.64,7.29,16.73,9.13c7.1,1.87,16.23,2.8,27.39,2.8h196.76c6.08,0,9.12,3.04,9.12,9.12v42.6c0,6.09-3.04,9.13-9.12,9.13
		H2933.8c-23,0-42.18-1.85-57.55-5.58c-15.39-3.71-27.73-9.71-37.03-18c-9.3-8.27-15.96-18.93-20.02-31.95
		c-4.07-13.01-6.09-28.65-6.09-46.91V282.1c0-18.25,2.03-33.89,6.09-46.9c4.06-13,10.72-23.67,20.02-31.94
		c9.3-8.29,21.64-14.38,37.03-18.26c15.38-3.89,34.56-5.83,57.55-5.83H3137.65z"/>
	<path class="st0" d="M3256.31,76.21c7.43,0,11.16,3.74,11.16,11.16v48.18c0,7.79-3.72,11.67-11.16,11.67h-49.7
		c-7.77,0-11.67-3.88-11.67-11.67V87.37c0-7.42,3.89-11.16,11.67-11.16H3256.31z M3256.31,179.17c7.43,0,11.16,3.88,11.16,11.66
		v255.58c0,7.45-3.72,11.16-11.16,11.16h-49.7c-7.45,0-11.16-3.71-11.16-11.16V190.82c0-7.77,3.71-11.66,11.16-11.66H3256.31z"/>
	<path class="st0" d="M3557.03,179.17c22.64,0,41.74,1.93,57.3,5.83c15.54,3.88,27.97,9.97,37.27,18.25
		c9.3,8.29,15.97,18.94,20.02,31.95c4.06,13.01,6.09,28.64,6.09,46.9V417c0,8.12-0.59,14.79-1.78,20.04
		c-1.2,5.24-3.22,9.38-6.09,12.42c-2.88,3.04-6.68,5.16-11.41,6.34c-4.74,1.18-10.81,1.78-18.26,1.78h-241.37
		c-14.89,0-27.31-1.43-37.28-4.32c-9.97-2.87-18-7.17-24.07-12.93c-6.09-5.74-10.41-13.18-12.94-22.31
		c-2.54-9.13-3.8-19.94-3.8-32.45v-24.34c0-10.47,1.26-19.86,3.8-28.15c2.54-8.27,6.85-15.29,12.94-21.05
		c6.08-5.74,14.1-10.04,24.07-12.92c9.97-2.87,22.39-4.31,37.28-4.31h206.38v-9.63c0-8.12-0.84-15.05-2.53-20.8
		c-1.7-5.75-4.57-10.39-8.62-13.94c-4.06-3.54-9.64-6.17-16.75-7.85c-7.09-1.68-16.22-2.54-27.38-2.54h-211.97
		c-6.09,0-9.14-3.05-9.14-9.13v-42.6c0-6.08,3.05-9.12,9.14-9.12H3557.03z M3590.5,401.79c5.39,0,9.2-1.28,11.41-3.81
		c2.18-2.53,3.29-7,3.29-13.43v-44.64h-185.6c-10.48,0-17.84,2.13-22.06,6.35c-4.22,4.22-6.34,10.39-6.34,18.51v10.66
		c0,9.12,2.12,15.8,6.34,20.02c4.22,4.22,11.58,6.34,22.06,6.34H3590.5z"/>
	<g>
		<path class="st0" d="M904.17,452.06L605.69,187.73c-2.7-2.7-3.63-5.66-2.79-8.87c0.84-3.22,3.63-4.81,8.37-4.81l59.57-4.52
			c3.72,0,6.59,0.49,8.62,1.51c2.03,1.01,3.89,2.53,5.58,4.57l99.53,89.6l225.36-203.95c2.03-2.03,4.07-3.55,6.09-4.56
			c2.03-1.01,4.91-1.51,8.62-1.51h64.41c4.74,0,7.45,1.59,8.12,4.81c0.68,3.21-0.33,6.17-3.04,8.87L830.99,305.61l157.26,138.77
			c2.71,2.71,3.63,5.58,2.79,8.62c-0.83,3.05-3.62,4.57-8.37,4.57h-64.13c-3.71,0-6.59-0.51-8.62-1.51
			c-2.04-1.03-3.05-1.46-4.74-3.15"/>
		<path class="st1" d="M454.42,568.37l251-231.9l45.67,40.76L531.69,575.99c-1.7,1.7-3.63,3.04-5.83,4.05
			c-2.2,1-5.16,1.51-8.88,1.51H460c-4.74,0-7.43-1.51-8.1-4.55C451.21,573.95,452.05,571.08,454.42,568.37"/>
	</g>
	<g>
		<path class="st0" d="M3804.29,339.48h12.88h45.44v12.88h-45.44v106.29h-12.88V352.36h-45.26v-12.88H3804.29z"/>
		<path class="st0" d="M3978.9,339.48v12.88l-70.69-0.17c-5.65,0-10.43,1.95-14.33,5.85c-3.9,3.9-5.85,8.68-5.85,14.33v27.12
			c5.99-4.64,12.72-6.96,20.18-6.96h57.81v12.89h-57.81c-5.65,0-10.43,1.95-14.33,5.85c-3.9,3.9-5.85,8.67-5.85,14.32
			c0,5.65,1.95,10.43,5.85,14.33c3.9,3.9,8.68,5.85,14.33,5.85h70.52v12.88h-70.52c-9.05,0-16.82-3.25-23.31-9.75
			c-6.5-6.49-9.75-14.26-9.75-23.31v-53.23c0-9.04,3.25-16.81,9.75-23.31c6.49-6.49,14.26-9.75,23.31-9.75L3978.9,339.48z"/>
		<path class="st0" d="M4067.39,345.75c8.14,4.18,14.35,9.21,18.64,15.09l-9.15,9.15c-3.16-4.86-7.94-9.01-14.33-12.45
			c-6.38-3.44-12.51-5.18-18.39-5.18c-10.74,0-19.89,3.8-27.47,11.36c-7.57,7.58-11.36,16.73-11.36,27.47v15.77
			c0,10.74,3.79,19.89,11.36,27.47c7.57,7.57,16.72,11.36,27.47,11.36c5.88,0,11.98-1.72,18.31-5.18c6.32-3.44,11.13-7.6,14.4-12.45
			l9.15,9.15c-4.3,5.88-10.51,10.91-18.64,15.09c-8.14,4.18-15.88,6.27-23.23,6.27c-14.24,0-26.41-5.05-36.53-15.17
			c-10.12-10.12-15.17-22.29-15.17-36.53v-15.77c0-14.23,5.05-26.41,15.17-36.53c10.12-10.11,22.29-15.17,36.53-15.17
			C4051.51,339.48,4059.25,341.57,4067.39,345.75z"/>
		<path class="st0" d="M4112.3,339.48v60.01c5.88-4.52,12.61-6.79,20.18-6.79h37.46v12.72h-37.46c-5.65,0-10.43,1.98-14.33,5.93
			c-3.9,3.96-5.85,8.7-5.85,14.23v33.06h-12.88v-33.06v-86.12H4112.3z M4203,339.48v33.06v86.12h-12.88v-60.18
			c-5.99,4.64-12.72,6.96-20.18,6.96V392.7c5.65,0,10.43-1.97,14.33-5.93c3.9-3.95,5.85-8.7,5.85-14.23v-33.06H4203z"/>
	</g>
</g>
</svg>
